<svg xmlns="http://www.w3.org/2000/svg" width="18.923" height="15.375" viewBox="0 0 18.923 15.375">
  <g id="Group" transform="translate(-1384.537 -464)">
    <g id="Group-2" data-name="Group">
      <path id="Vector" d="M18.923,1.82a8.088,8.088,0,0,1-2.235.613A3.858,3.858,0,0,0,18.394.289a7.753,7.753,0,0,1-2.46.939A3.879,3.879,0,0,0,9.224,3.88a4,4,0,0,0,.09.885,10.981,10.981,0,0,1-8-4.058A3.88,3.88,0,0,0,2.51,5.892,3.831,3.831,0,0,1,.757,5.414v.043A3.9,3.9,0,0,0,3.865,9.269,3.872,3.872,0,0,1,2.848,9.4a3.43,3.43,0,0,1-.734-.066,3.916,3.916,0,0,0,3.625,2.7,7.8,7.8,0,0,1-4.81,1.655A7.266,7.266,0,0,1,0,13.634a10.922,10.922,0,0,0,5.951,1.741A10.965,10.965,0,0,0,16.993,4.336c0-.171-.006-.337-.014-.5A7.739,7.739,0,0,0,18.923,1.82Z" transform="translate(1384.537 464)"/>
    </g>
  </g>
</svg>
