<svg xmlns="http://www.w3.org/2000/svg" width="11.206" height="20.774" viewBox="0 0 11.206 20.774"><g transform="translate(-1387.999 -367)"><path d="M3.12,11.726H.546C.13,11.726,0,11.57,0,11.18V8.034c0-.416.156-.546.546-.546H3.12V5.2a5.775,5.775,0,0,1,.7-2.938A4.314,4.314,0,0,1,6.136.338a5.785,5.785,0,0,1,2-.338h2.548c.364,0,.52.156.52.52V3.484c0,.364-.156.52-.52.52-.7,0-1.4,0-2.106.026A.939.939,0,0,0,7.514,5.1c-.026.78,0,1.534,0,2.34H10.53c.416,0,.572.156.572.572v3.146c0,.416-.13.546-.572.546H7.514v8.476c0,.442-.13.6-.6.6H3.666c-.39,0-.546-.156-.546-.546v-8.5Z" transform="translate(1387.999 367)"/></g></svg>